<svg xmlns="http://www.w3.org/2000/svg" viewBox="0 0 512 512" role="img" aria-label="LingoLine">
  <defs>
    <linearGradient id="g" x1="0" y1="0" x2="1" y2="1">
      <stop offset="0" stop-color="#adc6ff"/>
      <stop offset="1" stop-color="#4d8eff"/>
    </linearGradient>
  </defs>
  <rect width="512" height="512" rx="112" fill="#0e131f"/>
  <rect x="40" y="40" width="432" height="432" rx="96" fill="url(#g)"/>
  <g transform="translate(88 88) scale(14)">
    <path d="M6.62 10.79c1.44 2.83 3.76 5.14 6.59 6.59l2.2-2.2c.27-.27.67-.36 1.02-.24 1.12.37 2.33.57 3.57.57.55 0 1 .45 1 1V20c0 .55-.45 1-1 1-9.39 0-17-7.61-17-17 0-.55.45-1 1-1h3.5c.55 0 1 .45 1 1 0 1.25.2 2.45.57 3.57.11.35.03.74-.25 1.02l-2.2 2.2z" fill="#0e131f"/>
  </g>
</svg>
